<svg xmlns="http://www.w3.org/2000/svg" xmlns:xlink="http://www.w3.org/1999/xlink" version="1.1" x="0px" y="0px" viewBox="0 0 100 125" style="enable-background:new 0 0 100 100;" xml:space="preserve"><style type="text/css">
	.st0{fill:none;stroke:#000000;stroke-width:3;stroke-linecap:round;stroke-miterlimit:10;}
</style><path d="M94.3300781,8.3984375c-0.3398438-0.4560547-0.7114258-0.8876953-1.1044922-1.2802734  c-0.3925781-0.3925781-0.8237305-0.7646484-1.28125-1.1054688c-1.5356445-1.140625-3.6240234-0.9912109-4.9697266,0.3544922  L51.3250122,42.0172729c-1.0372925-0.2286987-2.1508789,0.0595703-2.9421997,0.8508911l-3.5756226,3.5756226  c-2.0223389-0.8983765-4.4063721-0.7477417-6.3501587,0.4575806c-0.0522461,0.0322266-0.1025391,0.0683594-0.1508789,0.1064453  c-5.9404297,4.7802734-23.2260742,16.9716797-31.7451172,15.9853516c-0.7128906-0.0791016-1.3779297,0.3476562-1.5986328,1.0273438  C4.71875,64.7714844,2.9506836,71.7275391,15.7832031,84.5605469c9.6289062,9.6289062,15.949707,11.0371094,18.8227539,11.0371094  c0.9560547,0,1.5302734-0.15625,1.7177734-0.2167969c0.6791992-0.2207031,1.1083984-0.8896484,1.0268555-1.5986328  c-0.4804688-4.1591797,2.0942383-10.9257812,7.4453125-19.5703125c4.1386719-6.6855469,8.4956055-12.1210938,8.5395508-12.1748047  c0.0385742-0.0478516,0.0742188-0.0986328,0.1064453-0.1503906c1.2034912-1.9446411,1.3560791-4.3287354,0.4576416-6.3502197  l3.5770264-3.5765381c0.789917-0.7906494,1.0790405-1.9039917,0.8500366-2.9413452l35.6494751-35.6494751  C95.3217773,12.0234375,95.4707031,9.9335938,94.3300781,8.3984375z M50.9345703,60.2353516  c-1.2885742,1.6123047-16.4272461,20.7939453-16.6352539,32.3320312c-1.0932617-0.0635376-2.977478-0.4265137-5.6248169-1.7872925  c0.1731567-1.5794067,0.9369507-5.3309326,4.2766724-10.1863403c0.4697266-0.6816406,0.296875-1.6162109-0.3857422-2.0859375  c-0.6816406-0.4667969-1.6157227-0.2949219-2.0859375,0.3867188c-2.998291,4.3587036-4.1450806,7.9660645-4.5841675,10.2410889  c-1.9971924-1.3217773-4.3032227-3.1474609-6.9143677-5.6517334l4.4545898-4.4545898  c0.5859375-0.5859375,0.5859375-1.5351562,0-2.1210938s-1.5351562-0.5859375-2.1210938,0l-4.4545898,4.4545898  c-2.456543-2.5612793-4.2589111-4.8280029-5.5744629-6.7980347c2.7470703-0.565979,7.5272217-2.4276123,15.3859863-7.8616333  c0.6816406-0.4707031,0.8520508-1.4052734,0.3808594-2.0869141c-0.4707031-0.6806641-1.4052734-0.8525391-2.0869141-0.3798828  c-9.4937744,6.5640869-13.9250488,7.4522705-15.350769,7.5408936c-1.4151001-2.7161255-1.7802124-4.6346436-1.8445435-5.7322998  c11.5366211-0.2041016,30.7236328-15.3457031,32.3378906-16.6367188c1.1708984-0.6904297,2.5961914-0.7353516,3.7416992-0.1103516  c1.2734375,0.6933594,2.6308594,1.7568359,4.034668,3.1611328s2.4677734,2.7617188,3.1621094,4.0351562  C51.6704102,57.6396484,51.6259766,59.0654297,50.9345703,60.2353516z M55.3544922,49.8398438l-3.0818481,3.0814819  c-0.6469116-0.8515015-1.3977051-1.7143555-2.2667847-2.5834351c-0.8692017-0.8695068-1.7318726-1.6203613-2.5831909-2.2672729  l3.0807495-3.0803833c0.0664062-0.0673828,0.1708984-0.0742188,0.25-0.0195312  c0.5800781,0.4072266,1.4848633,1.1054688,2.4995117,2.1201172c1.0136719,1.0136719,1.7124023,1.9189453,2.1191406,2.4990234  C55.4287109,49.6699219,55.4208984,49.7734375,55.3544922,49.8398438z M91.8549805,11.2480469L56.6973877,46.4056396  c-0.411377-0.4859619-0.8532104-0.9657593-1.3233643-1.4359131c-0.4701538-0.4703979-0.9500122-0.9122314-1.4358521-1.3234863  l35.1575317-35.157959c0.284668-0.2841797,0.7290039-0.3115234,1.0581055-0.0683594  c0.3408203,0.2539062,0.6606445,0.5292969,0.9506836,0.8193359s0.5654297,0.609375,0.8183594,0.9492188  C92.1674805,10.5185547,92.1391602,10.9638672,91.8549805,11.2480469z"/><text x="0" y="115" fill="#000000" font-size="5px" font-weight="bold" font-family="'Helvetica Neue', Helvetica, Arial-Unicode, Arial, Sans-serif">Created by Artem  Kovyazin</text><text x="0" y="120" fill="#000000" font-size="5px" font-weight="bold" font-family="'Helvetica Neue', Helvetica, Arial-Unicode, Arial, Sans-serif">from the Noun Project</text></svg>