<svg xmlns:dc="http://purl.org/dc/elements/1.1/" xmlns:cc="http://creativecommons.org/ns#" xmlns:rdf="http://www.w3.org/1999/02/22-rdf-syntax-ns#" xmlns:svg="http://www.w3.org/2000/svg" xmlns="http://www.w3.org/2000/svg" xmlns:sodipodi="http://sodipodi.sourceforge.net/DTD/sodipodi-0.dtd" xmlns:inkscape="http://www.inkscape.org/namespaces/inkscape" version="1.1" x="0px" y="0px" viewBox="0 0 100 125"><g transform="translate(0,-952.36218)"><path style="font-size:medium;font-style:normal;font-variant:normal;font-weight:normal;font-stretch:normal;text-indent:0;text-align:start;text-decoration:none;line-height:normal;letter-spacing:normal;word-spacing:normal;text-transform:none;direction:ltr;block-progression:tb;writing-mode:lr-tb;text-anchor:start;baseline-shift:baseline;opacity:1;color:#000000;fill:#000000;fill-opacity:1;stroke:none;stroke-width:4.00000047999999970;marker:none;visibility:visible;display:inline;overflow:visible;enable-background:accumulate;font-family:Sans;-inkscape-font-specification:Sans" d="M 50,7 C 26.275447,7 7,26.2754 7,50 c 0,1.046635 0.9432643,2.028498 2,2.028498 1.056736,0 2.014951,-0.971868 2,-2.028498 0,-21.56284 17.437205,-39 39,-39 13.471949,0 25.166782,6.37098 32.15625,16.59375 L 67.21875,26 c -1.072468,-0.185731 -2.21021,0.669819 -2.329472,1.751697 -0.119262,1.081878 0.8048,2.164714 1.891972,2.217053 l 19,2 C 86.964037,32.10483 88.11929,30.965848 88,29.78125 l -2,-20 C 85.906936,8.7208228 84.838924,7.8483623 83.78125,7.96875 82.731705,8.0773024 81.879112,9.1393044 82,10.1875 l 1.21875,12.125 C 75.344704,12.782326 63.388032,7 50,7 z M 90.78125,47.96875 C 89.798498,48.076745 88.978737,49.01156 89,50 89,71.5628 71.562801,89 50,89 36.513539,89 24.799448,82.619829 17.8125,72.375 l 14.96875,1.59375 c 1.072468,0.185731 2.21021,-0.669819 2.329472,-1.751697 C 35.229984,71.135175 34.305922,70.052339 33.21875,70 l -19,-2 C 14.083801,67.98622 13.947449,67.98622 13.8125,68 12.763657,68.09379 11.897209,69.139501 12,70.1875 l 2,20 c 0.107906,1.045973 1.156661,1.899958 2.202803,1.793709 C 17.248946,91.87496 18.104592,90.82756 18,89.78125 L 16.78125,77.6875 C 24.658511,87.213449 36.619751,93 50,93 73.724559,93 93,73.7246 93,50 93,48.882565 91.90924,47.844493 90.78125,47.96875 z" transform="translate(0,952.36218)"/></g><text x="0" y="115" fill="#000000" font-size="5px" font-weight="bold" font-family="'Helvetica Neue', Helvetica, Arial-Unicode, Arial, Sans-serif">Created by throwaway icons</text><text x="0" y="120" fill="#000000" font-size="5px" font-weight="bold" font-family="'Helvetica Neue', Helvetica, Arial-Unicode, Arial, Sans-serif">from the Noun Project</text></svg>